<svg xmlns="http://www.w3.org/2000/svg" viewBox="0 0 820 400" font-family="system-ui, -apple-system, sans-serif" font-size="12">
  <defs>
    <filter id="shadow" x="-4%" y="-4%" width="108%" height="108%">
      <feDropShadow dx="1" dy="1" stdDeviation="2" flood-opacity="0.08"/>
    </filter>
    <marker id="arrow" viewBox="0 0 10 10" refX="9" refY="5" markerWidth="5" markerHeight="5" orient="auto-start-auto">
      <path d="M 0 0 L 10 5 L 0 10 z" fill="#90C695"/>
    </marker>
  </defs>

  <rect width="820" height="400" fill="#FAFCFF" rx="12"/>
  <text x="410" y="28" text-anchor="middle" font-size="18" font-weight="700" fill="#1B3A4B">Agent Specialization</text>

  <!-- Agents column -->
  <rect x="20" y="50" width="350" height="330" rx="10" fill="#F0FFF0" stroke="#90C695" stroke-width="1.5" filter="url(#shadow)"/>
  <text x="195" y="72" text-anchor="middle" font-weight="700" fill="#4A7A4E">AI Agents</text>

  <rect x="40" y="85" width="310" height="38" rx="6" fill="#DCEEFB" stroke="#7FB3D3" stroke-width="1"/>
  <text x="55" y="103" font-size="14">🔍</text>
  <text x="75" y="103" font-weight="600" fill="#1B3A4B">RequirementsAgent</text>
  <text x="75" y="116" font-size="9" fill="#7FB3D3">extract · use_cases · analyze</text>

  <rect x="40" y="130" width="310" height="38" rx="6" fill="#FFF8E7" stroke="#E6C97A" stroke-width="1"/>
  <text x="55" y="148" font-size="14">👥</text>
  <text x="75" y="148" font-weight="600" fill="#1B3A4B">RolesAgent</text>
  <text x="75" y="161" font-size="9" fill="#E6C97A">recommend_roles</text>

  <rect x="40" y="175" width="310" height="38" rx="6" fill="#E8FFE8" stroke="#90C695" stroke-width="1"/>
  <text x="55" y="193" font-size="14">🏗️</text>
  <text x="75" y="193" font-weight="600" fill="#1B3A4B">ArchitectureAgent</text>
  <text x="75" y="206" font-size="9" fill="#90C695">design · review</text>

  <rect x="40" y="220" width="310" height="38" rx="6" fill="#FFF0F5" stroke="#D4A0B0" stroke-width="1"/>
  <text x="55" y="238" font-size="14">⚙️</text>
  <text x="75" y="238" font-weight="600" fill="#1B3A4B">DevelopmentAgent</text>
  <text x="75" y="251" font-size="9" fill="#D4A0B0">tasks · scaffold</text>

  <rect x="40" y="265" width="310" height="38" rx="6" fill="#F5F0FF" stroke="#B0A0D4" stroke-width="1"/>
  <text x="55" y="283" font-size="14">🚀</text>
  <text x="75" y="283" font-weight="600" fill="#1B3A4B">DeploymentAgent</text>
  <text x="75" y="296" font-size="9" fill="#B0A0D4">plan_deployment</text>

  <rect x="40" y="310" width="310" height="38" rx="6" fill="#FFFAF0" stroke="#D4B896" stroke-width="1"/>
  <text x="55" y="328" font-size="14">📅</text>
  <text x="75" y="328" font-weight="600" fill="#1B3A4B">ScheduleAgent</text>
  <text x="75" y="341" font-size="9" fill="#D4B896">generate_schedule</text>

  <!-- Arrows -->
  <line x1="350" y1="104" x2="440" y2="104" stroke="#90C695" stroke-width="1.5" marker-end="url(#arrow)"/>
  <line x1="350" y1="149" x2="440" y2="149" stroke="#90C695" stroke-width="1.5" marker-end="url(#arrow)"/>
  <line x1="350" y1="194" x2="440" y2="194" stroke="#90C695" stroke-width="1.5" marker-end="url(#arrow)"/>
  <line x1="350" y1="239" x2="440" y2="239" stroke="#90C695" stroke-width="1.5" marker-end="url(#arrow)"/>
  <line x1="350" y1="284" x2="440" y2="284" stroke="#90C695" stroke-width="1.5" marker-end="url(#arrow)"/>
  <line x1="350" y1="329" x2="440" y2="329" stroke="#90C695" stroke-width="1.5" marker-end="url(#arrow)"/>

  <!-- Prompts column -->
  <rect x="450" y="50" width="350" height="330" rx="10" fill="#FFF0F5" stroke="#D4A0B0" stroke-width="1.5" filter="url(#shadow)"/>
  <text x="625" y="72" text-anchor="middle" font-weight="700" fill="#8B5A6A">Prompt Templates</text>

  <rect x="470" y="85" width="310" height="38" rx="6" fill="#FFFFFF" stroke="#D4A0B0" stroke-width="1"/>
  <text x="485" y="103" font-size="10" font-weight="600" fill="#1B3A4B">REQUIREMENTS_EXTRACT</text>
  <text x="485" y="116" font-size="9" fill="#D4A0B0">REQUIREMENTS_ANALYZE · USE_CASE_GENERATE</text>

  <rect x="470" y="130" width="310" height="38" rx="6" fill="#FFFFFF" stroke="#D4A0B0" stroke-width="1"/>
  <text x="485" y="148" font-size="10" font-weight="600" fill="#1B3A4B">ROLES_RECOMMEND</text>
  <text x="485" y="161" font-size="9" fill="#D4A0B0">team composition + RACI</text>

  <rect x="470" y="175" width="310" height="38" rx="6" fill="#FFFFFF" stroke="#D4A0B0" stroke-width="1"/>
  <text x="485" y="193" font-size="10" font-weight="600" fill="#1B3A4B">ARCHITECTURE_DESIGN</text>
  <text x="485" y="206" font-size="9" fill="#D4A0B0">ARCHITECTURE_REVIEW</text>

  <rect x="470" y="220" width="310" height="38" rx="6" fill="#FFFFFF" stroke="#D4A0B0" stroke-width="1"/>
  <text x="485" y="238" font-size="10" font-weight="600" fill="#1B3A4B">DEV_TASKS_GENERATE</text>
  <text x="485" y="251" font-size="9" fill="#D4A0B0">CODE_SCAFFOLD</text>

  <rect x="470" y="265" width="310" height="38" rx="6" fill="#FFFFFF" stroke="#D4A0B0" stroke-width="1"/>
  <text x="485" y="283" font-size="10" font-weight="600" fill="#1B3A4B">DEPLOYMENT_PLAN</text>
  <text x="485" y="296" font-size="9" fill="#D4A0B0">environments + CI/CD + IaC</text>

  <rect x="470" y="310" width="310" height="38" rx="6" fill="#FFFFFF" stroke="#D4A0B0" stroke-width="1"/>
  <text x="485" y="328" font-size="10" font-weight="600" fill="#1B3A4B">SCHEDULE_GENERATE</text>
  <text x="485" y="341" font-size="9" fill="#D4A0B0">milestones + sprints + critical path</text>

  <text x="410" y="393" text-anchor="middle" font-size="10" fill="#999">Rational AI v0.1.0 — Agent Specialization</text>
</svg>
