<svg xmlns="http://www.w3.org/2000/svg" viewBox="0 0 880 700" font-family="system-ui, -apple-system, sans-serif" font-size="12">
  <defs>
    <filter id="shadow" x="-4%" y="-4%" width="108%" height="108%">
      <feDropShadow dx="1" dy="1" stdDeviation="2" flood-opacity="0.08"/>
    </filter>
    <marker id="arrow" viewBox="0 0 10 10" refX="9" refY="5" markerWidth="5" markerHeight="5" orient="auto-start-auto">
      <path d="M 0 0 L 10 5 L 0 10 z" fill="#7FB3D3"/>
    </marker>
  </defs>

  <rect width="880" height="700" fill="#FAFCFF" rx="12"/>
  <text x="440" y="30" text-anchor="middle" font-size="18" font-weight="700" fill="#1B3A4B">Component Dependencies</text>

  <!-- CLI -->
  <rect x="340" y="50" width="200" height="45" rx="8" fill="#E8F4FD" stroke="#7FB3D3" stroke-width="1.5" filter="url(#shadow)"/>
  <text x="440" y="70" text-anchor="middle" font-weight="700" fill="#1B3A4B">cli.py</text>
  <text x="440" y="85" text-anchor="middle" font-size="10" fill="#7FB3D3">Typer App · 12 commands</text>

  <line x1="440" y1="95" x2="440" y2="125" stroke="#7FB3D3" stroke-width="1.5" marker-end="url(#arrow)"/>

  <!-- Orchestrator -->
  <rect x="300" y="130" width="280" height="45" rx="8" fill="#FFF8E7" stroke="#E6C97A" stroke-width="1.5" filter="url(#shadow)"/>
  <text x="440" y="150" text-anchor="middle" font-weight="700" fill="#1B3A4B">project.py — ProjectOrchestrator</text>
  <text x="440" y="165" text-anchor="middle" font-size="10" fill="#E6C97A">Lifecycle coordinator · init / load / save / run</text>

  <!-- Config -->
  <rect x="640" y="130" width="200" height="45" rx="8" fill="#FFFAF0" stroke="#D4B896" stroke-width="1.5" filter="url(#shadow)"/>
  <text x="740" y="150" text-anchor="middle" font-weight="700" fill="#1B3A4B">config.py</text>
  <text x="740" y="165" text-anchor="middle" font-size="10" fill="#D4B896">Config · AIProviderConfig</text>
  <line x1="580" y1="152" x2="640" y2="152" stroke="#D4B896" stroke-width="1" marker-end="url(#arrow)"/>

  <!-- Lines from Orchestrator -->
  <line x1="360" y1="175" x2="240" y2="220" stroke="#90C695" stroke-width="1.5" marker-end="url(#arrow)"/>
  <line x1="520" y1="175" x2="640" y2="220" stroke="#96C8D4" stroke-width="1.5" marker-end="url(#arrow)"/>
  <line x1="440" y1="175" x2="440" y2="380" stroke="#D4A0B0" stroke-width="1" stroke-dasharray="4,3"/>

  <!-- Phases group -->
  <rect x="40" y="225" width="400" height="195" rx="10" fill="#F0FFF0" stroke="#90C695" stroke-width="1.5" filter="url(#shadow)"/>
  <text x="240" y="245" text-anchor="middle" font-size="11" font-weight="600" fill="#4A7A4E">phases/</text>

  <rect x="60" y="255" width="110" height="35" rx="6" fill="#DCEEFB" stroke="#7FB3D3" stroke-width="1"/>
  <text x="115" y="277" text-anchor="middle" font-size="11" fill="#1B3A4B">requirements</text>

  <rect x="180" y="255" width="110" height="35" rx="6" fill="#FFF8E7" stroke="#E6C97A" stroke-width="1"/>
  <text x="235" y="277" text-anchor="middle" font-size="11" fill="#1B3A4B">roles</text>

  <rect x="300" y="255" width="120" height="35" rx="6" fill="#E8FFE8" stroke="#90C695" stroke-width="1"/>
  <text x="360" y="277" text-anchor="middle" font-size="11" fill="#1B3A4B">architecture</text>

  <rect x="60" y="300" width="110" height="35" rx="6" fill="#FFF0F5" stroke="#D4A0B0" stroke-width="1"/>
  <text x="115" y="322" text-anchor="middle" font-size="11" fill="#1B3A4B">development</text>

  <rect x="180" y="300" width="110" height="35" rx="6" fill="#F5F0FF" stroke="#B0A0D4" stroke-width="1"/>
  <text x="235" y="322" text-anchor="middle" font-size="11" fill="#1B3A4B">deployment</text>

  <rect x="300" y="300" width="120" height="35" rx="6" fill="#FFFAF0" stroke="#D4B896" stroke-width="1"/>
  <text x="360" y="322" text-anchor="middle" font-size="11" fill="#1B3A4B">scheduling</text>

  <!-- Lines from phases down -->
  <line x1="240" y1="345" x2="240" y2="380" stroke="#D4A0B0" stroke-width="1" stroke-dasharray="2,2"/>
  <text x="240" y="375" text-anchor="middle" font-size="9" fill="#999">use agents &amp; schema</text>

  <!-- Exporters group -->
  <rect x="500" y="225" width="340" height="120" rx="10" fill="#F0FFFF" stroke="#96C8D4" stroke-width="1.5" filter="url(#shadow)"/>
  <text x="670" y="245" text-anchor="middle" font-size="11" font-weight="600" fill="#5A8B8B">exporters/</text>

  <rect x="520" y="260" width="90" height="35" rx="6" fill="#FFFFFF" stroke="#96C8D4" stroke-width="1"/>
  <text x="565" y="282" text-anchor="middle" font-size="11" fill="#1B3A4B">markdown</text>

  <rect x="625" y="260" width="90" height="35" rx="6" fill="#FFFFFF" stroke="#96C8D4" stroke-width="1"/>
  <text x="670" y="282" text-anchor="middle" font-size="11" fill="#1B3A4B">html</text>

  <rect x="730" y="260" width="90" height="35" rx="6" fill="#FFFFFF" stroke="#96C8D4" stroke-width="1"/>
  <text x="775" y="282" text-anchor="middle" font-size="11" fill="#1B3A4B">mermaid</text>

  <text x="670" y="330" text-anchor="middle" font-size="10" fill="#96C8D4">Jinja2 · Mermaid.js CDN</text>

  <!-- AI layer -->
  <rect x="140" y="390" width="600" height="110" rx="10" fill="#FFF0F5" stroke="#D4A0B0" stroke-width="1.5" filter="url(#shadow)"/>
  <text x="440" y="410" text-anchor="middle" font-size="11" font-weight="600" fill="#8B5A6A">ai/</text>

  <rect x="160" y="420" width="160" height="35" rx="6" fill="#FFFFFF" stroke="#D4A0B0" stroke-width="1"/>
  <text x="240" y="442" text-anchor="middle" font-weight="600" font-size="11" fill="#1B3A4B">agents.py</text>

  <rect x="360" y="420" width="160" height="35" rx="6" fill="#FFFFFF" stroke="#D4A0B0" stroke-width="1"/>
  <text x="440" y="442" text-anchor="middle" font-weight="600" font-size="11" fill="#1B3A4B">providers.py</text>

  <rect x="560" y="420" width="160" height="35" rx="6" fill="#FFFFFF" stroke="#D4A0B0" stroke-width="1"/>
  <text x="640" y="442" text-anchor="middle" font-weight="600" font-size="11" fill="#1B3A4B">prompts.py</text>

  <text x="440" y="485" text-anchor="middle" font-size="10" fill="#D4A0B0">OpenAI SDK · httpx</text>

  <!-- Schema -->
  <rect x="280" y="540" width="320" height="50" rx="8" fill="#F5F0FF" stroke="#B0A0D4" stroke-width="1.5" filter="url(#shadow)"/>
  <text x="440" y="562" text-anchor="middle" font-weight="700" fill="#1B3A4B">models/schema.py</text>
  <text x="440" y="578" text-anchor="middle" font-size="10" fill="#B0A0D4">Pydantic v2 · 30+ model classes</text>

  <line x1="440" y1="500" x2="440" y2="540" stroke="#B0A0D4" stroke-width="1" marker-end="url(#arrow)"/>
  <line x1="670" y1="345" x2="550" y2="540" stroke="#B0A0D4" stroke-width="1" stroke-dasharray="3,3"/>

  <!-- External deps -->
  <rect x="160" y="630" width="100" height="35" rx="6" fill="#F8F8F8" stroke="#CCC" stroke-width="1"/>
  <text x="210" y="652" text-anchor="middle" font-size="10" fill="#888">pyyaml</text>
  <rect x="290" y="630" width="100" height="35" rx="6" fill="#F8F8F8" stroke="#CCC" stroke-width="1"/>
  <text x="340" y="652" text-anchor="middle" font-size="10" fill="#888">openai</text>
  <rect x="420" y="630" width="100" height="35" rx="6" fill="#F8F8F8" stroke="#CCC" stroke-width="1"/>
  <text x="470" y="652" text-anchor="middle" font-size="10" fill="#888">pydantic</text>
  <rect x="550" y="630" width="100" height="35" rx="6" fill="#F8F8F8" stroke="#CCC" stroke-width="1"/>
  <text x="600" y="652" text-anchor="middle" font-size="10" fill="#888">rich · typer</text>
  <rect x="680" y="630" width="100" height="35" rx="6" fill="#F8F8F8" stroke="#CCC" stroke-width="1"/>
  <text x="730" y="652" text-anchor="middle" font-size="10" fill="#888">jinja2</text>

  <text x="440" y="692" text-anchor="middle" font-size="10" fill="#999">Rational AI v0.1.0 — Component Dependencies</text>
</svg>
